<svg version="1.1" xmlns="http://www.w3.org/2000/svg" data-icon="cloud-transfer" width="128" height="128" class="iconic iconic-cloud-transfer" viewBox="0 0 128 128">
  <g><title>Cloud Transfer</title></g>
  <defs>
    <clipPath id="iconic-size-lg-cloud-download-clip-0">
      <path d="M0 0v86h50v-7.1c-2.4-2.2-4-5.4-4-8.9 0-6.6 5.4-12 12-12s12 5.4 12 12c0 3.5-1.6 6.7-4 8.9v7.1h62v-86h-128z"/>
    </clipPath>
    <clipPath id="iconic-size-md-cloud-download-clip-0">
      <path d="M0 0v22h12v-2.1c-.6-.6-1-1.5-1-2.4 0-1.9 1.6-3.5 3.5-3.5s3.5 1.6 3.5 3.5c0 1-.4 1.8-1 2.4v2.1h15v-22h-32z"/>
    </clipPath>
    <clipPath id="iconic-size-sm-cloud-download-clip-0">
      <path d="M0 0v12h6v-1c0-1.1.9-2 2-2s2 .9 2 2v1h6v-12h-16z"/>
    </clipPath>
    <clipPath id="iconic-size-lg-cloud-upload-clip-0">
      <path d="M0 0v86h42.7l15.3-26 15.3 26h54.7v-86z"/>
    </clipPath>
    <clipPath id="iconic-size-md-cloud-upload-clip-0">
      <path d="M0 0v22h9.5l5-6.5 5 6.5h12.5v-22z"/>
    </clipPath>
    <clipPath id="iconic-size-sm-cloud-upload-clip-0">
      <path d="M0 0v12h4l4-4 4 4h4v-12z"/>
    </clipPath>
  </defs>
  <g data-width="128" data-height="128" class="iconic-lg iconic-container" display="inline">
    <g class="iconic-cloud-upload" display="inline">
      <path stroke="#000" stroke-width="8" stroke-linecap="square" stroke-linejoin="round" stroke-miterlimit="10" class="iconic-cloud-upload-arrow iconic-cloud-upload-arrow-line iconic-property-accent iconic-property-stroke" d="M58 120v-32.1" fill="none"/>
      <path class="iconic-cloud-upload-arrow iconic-cloud-upload-arrow-head iconic-property-accent iconic-property-fill" d="M58 68l-14 24h28z"/>
      <circle cx="58" cy="120" r="8" class="iconic-cloud-upload-arrow iconic-cloud-upload-arrow-starting-point iconic-property-accent iconic-property-fill"/>
      <path d="M110 50l-2.1.1c-.9-8.4-7.6-15.1-16-16-.9-19-16.7-34.1-35.9-34.1-18.8 0-34.3 14.5-35.9 32.9-11.5 3-20.1 13.6-20.1 26.1 0 14.6 11.6 26.4 26 27h84c9.9 0 18-8.1 18-18s-8.1-18-18-18z" clip-path="url(#iconic-size-lg-cloud-upload-clip-0)" class="iconic-cloud-upload-cloud iconic-property-fill"/>
    </g>
  </g>
</svg>
