<svg viewBox="0 0 1440 129" fill="none" xmlns="http://www.w3.org/2000/svg">
<g clip-path="url(#clip0)">
<rect width="1440" height="129" fill="white"/>
<rect width="1440" height="192" fill="white"/>
<rect x="-2" y="-156" width="1453" height="467" fill="url(#paint0_linear)"/>
<mask id="mask0" mask-type="alpha" maskUnits="userSpaceOnUse" x="-2" y="-156" width="1453" height="467">
<rect x="-2" y="-156" width="1453" height="467" fill="white"/>
</mask>
<g mask="url(#mask0)">
<path d="M674.221 -166.418L1438.22 -663L1437.33 -166.418L674.221 328.718V-166.418Z" fill="url(#paint1_linear)"/>
<path opacity="0.75" d="M1485 -201L675 324.582L1080.02 587.621L1485 324.402V-201Z" fill="url(#paint2_linear)"/>
<path d="M674.597 35.684L-45 -432L-44.1585 35.684L674.597 502.087V35.684Z" fill="url(#paint3_linear)"/>
<path d="M674 -166.276L1438 -663L1437.11 -166.276L674 329V-166.276Z" fill="url(#paint4_linear)"/>
<path opacity="0.75" d="M1485 -201L675 324.834L1080.02 588L1485 324.654V-201Z" fill="url(#paint5_linear)"/>
<path d="M675 35.6405L-45 -432L-44.1581 35.6405L675 502V35.6405Z" fill="url(#paint6_linear)"/>
</g>
</g>
<defs>
<linearGradient id="paint0_linear" x1="1142.39" y1="-227.261" x2="647.173" y2="482.212" gradientUnits="userSpaceOnUse">
<stop stop-color="#9960E2"/>
<stop offset="1" stop-color="#7F39DB"/>
</linearGradient>
<linearGradient id="paint1_linear" x1="1217.87" y1="-852.832" x2="472.007" y2="-600.283" gradientUnits="userSpaceOnUse">
<stop stop-color="#9960E2"/>
<stop offset="1" stop-color="#7F39DB"/>
</linearGradient>
<linearGradient id="paint2_linear" x1="1299.05" y1="-322.306" x2="650.085" y2="161.977" gradientUnits="userSpaceOnUse">
<stop stop-color="#8035E2"/>
<stop offset="0.4075" stop-color="#721FDF"/>
<stop offset="1" stop-color="#6003DB"/>
</linearGradient>
<linearGradient id="paint3_linear" x1="825.254" y1="-152.633" x2="125.308" y2="-421.432" gradientUnits="userSpaceOnUse">
<stop stop-color="#8035E2"/>
<stop offset="1" stop-color="#6003DB"/>
</linearGradient>
<linearGradient id="paint4_linear" x1="1217.65" y1="-852.886" x2="471.743" y2="-600.394" gradientUnits="userSpaceOnUse">
<stop stop-color="#9960E2"/>
<stop offset="1" stop-color="#7F39DB"/>
</linearGradient>
<linearGradient id="paint5_linear" x1="1299.05" y1="-322.364" x2="649.863" y2="161.852" gradientUnits="userSpaceOnUse">
<stop stop-color="#8035E2"/>
<stop offset="0.4075" stop-color="#721FDF"/>
<stop offset="1" stop-color="#6003DB"/>
</linearGradient>
<linearGradient id="paint6_linear" x1="825.741" y1="-152.659" x2="125.52" y2="-421.739" gradientUnits="userSpaceOnUse">
<stop stop-color="#8035E2"/>
<stop offset="1" stop-color="#6003DB"/>
</linearGradient>
<clipPath id="clip0">
<rect width="1440" height="129" fill="white"/>
</clipPath>
</defs>
</svg>
