<?xml version="1.0" encoding="UTF-8"?>
<svg width="460px" height="512px" viewBox="0 0 460 512" version="1.1" xmlns="http://www.w3.org/2000/svg" xmlns:xlink="http://www.w3.org/1999/xlink">
    <!-- Generator: Sketch 48.2 (47327) - http://www.bohemiancoding.com/sketch -->
    <title>003-shield-1</title>
    <desc>Created with Sketch.</desc>
    <defs></defs>
    <g id="Page-1" stroke="none" stroke-width="1" fill="none" fill-rule="evenodd">
        <g id="003-shield-1" transform="translate(-1.000000, 0.000000)" fill-rule="nonzero">
            <path d="M453.511,88.622 C378.694,69.223 303.437,39.017 235.878,1.269 C232.848,-0.423 229.155,-0.424 226.123,1.269 C156.621,40.099 85.432,68.672 8.489,88.623 C4.079,89.767 0.999,93.747 0.999,98.303 L0.999,208.697 C0.999,322.232 56.291,397.336 102.677,440.347 C152.434,486.485 210.137,512.002 231.001,512.002 C251.865,512.002 309.568,486.485 359.325,440.347 C405.709,397.336 461.003,322.233 461.003,208.697 L461.003,98.302 C461.002,93.746 457.922,89.766 453.511,88.622 Z M345.726,425.678 C318.169,451.231 291.39,467.363 273.776,476.396 C251.457,487.843 235.966,491.999 231,491.999 C226.034,491.999 210.544,487.844 188.224,476.396 C170.612,467.363 143.832,451.231 116.274,425.678 C72.81,385.375 20.998,315.015 20.998,208.695 L20.998,106.008 C94.962,86.208 163.799,58.485 231.001,21.434 C296.499,57.493 368.828,86.619 441.001,106.005 L441.001,208.695 L441.002,208.695 C441.001,315.015 389.19,385.375 345.726,425.678 Z" id="Shape" fill="#95A5A6"></path>
            <path d="M418.793,115.368 C355.457,96.955 293.857,71.944 235.706,41.031 C232.768,39.468 229.245,39.471 226.309,41.037 C168.069,72.079 106.47,97.094 43.22,115.387 C38.943,116.624 35.998,120.54 35.998,124.993 L35.998,208.695 C35.998,247.772 43.403,284.856 58.006,318.917 C72.536,352.808 94.207,383.737 122.415,410.85 C142.59,430.24 165.884,447.327 189.782,460.263 C194.064,462.581 216.087,474.266 229.184,476.684 C229.784,476.794 230.391,476.85 230.999,476.85 C231.607,476.85 232.214,476.794 232.814,476.684 C245.911,474.266 267.934,462.581 272.216,460.263 C296.111,447.327 319.406,430.24 339.583,410.85 C367.791,383.739 389.461,352.809 403.992,318.917 C418.595,284.857 426,247.773 426,208.695 L426,124.971 C426.001,120.524 423.063,116.611 418.793,115.368 Z M406.001,208.695 C406.001,282.071 378.993,345.233 325.725,396.429 C306.827,414.591 285.032,430.582 262.696,442.674 C252.529,448.177 238.804,454.593 230.999,456.608 C223.194,454.593 209.469,448.177 199.303,442.674 C176.966,430.581 155.171,414.59 136.274,396.429 C83.007,345.234 55.998,282.07 55.998,208.695 L55.998,132.48 C116.352,114.511 175.17,90.549 231.017,61.174 C286.774,90.425 345.586,114.378 406,132.448 L406,208.695 L406.001,208.695 Z" id="Shape" fill="#95A5A6"></path>
            <path d="M148.027,358.305 L147.827,358.09 C144.126,354.035 137.84,353.723 133.754,357.401 C129.649,361.095 129.316,367.418 133.01,371.523 L133.21,371.738 C135.181,373.896 137.883,374.994 140.597,374.994 C142.98,374.994 145.372,374.146 147.283,372.427 C151.388,368.733 151.721,362.409 148.027,358.305 Z" id="Shape" fill="#95A5A6"></path>
            <path d="M201.963,403.695 C189.917,396.093 178.318,387.331 167.49,377.651 C163.373,373.969 157.051,374.324 153.37,378.441 C149.69,382.559 150.044,388.88 154.162,392.561 C165.815,402.979 178.307,412.415 191.291,420.609 C192.948,421.654 194.793,422.153 196.618,422.153 C199.936,422.153 203.182,420.503 205.084,417.489 C208.032,412.818 206.635,406.642 201.963,403.695 Z" id="Shape" fill="#95A5A6"></path>
            <path d="M283.898,209.077 L283.898,176.156 C283.898,146.988 260.168,123.258 230.998,123.258 C201.83,123.258 178.1,146.988 178.1,176.156 L178.1,209.077 C166.202,209.506 156.653,219.312 156.653,231.313 L156.653,308.082 C156.652,320.355 166.637,330.339 178.91,330.339 L283.09,330.339 C295.363,330.339 305.348,320.355 305.348,308.082 L305.348,231.313 C305.348,219.311 295.798,209.504 283.898,209.077 Z M198.099,176.156 C198.099,158.016 212.858,143.258 230.999,143.258 C249.139,143.258 263.897,158.016 263.897,176.156 L263.897,209.056 L198.098,209.056 L198.098,176.156 L198.099,176.156 Z M285.347,308.083 C285.347,309.307 284.313,310.34 283.089,310.34 L178.908,310.34 C177.684,310.34 176.65,309.307 176.65,308.083 L176.65,231.314 L176.651,231.314 C176.651,230.09 177.685,229.057 178.909,229.057 L188.098,229.057 L273.897,229.057 L283.089,229.057 C284.313,229.057 285.347,230.09 285.347,231.314 L285.347,308.083 Z" id="Shape" fill="#4B0472"></path>
            <path d="M231,249.64 C223.299,249.64 217.018,255.921 217.018,263.622 C217.018,267.408 218.541,270.847 221,273.368 L221,283.155 C221,288.677 225.477,293.155 231,293.155 C236.523,293.155 241,288.677 241,283.155 L241,273.368 C243.459,270.846 244.982,267.408 244.982,263.622 C244.982,255.921 238.701,249.64 231,249.64 Z" id="Shape" fill="#4B0472"></path>
        </g>
    </g>
</svg>