<?xml version="1.0" encoding="UTF-8"?>
<svg width="479px" height="511px" viewBox="0 0 479 511" version="1.1" xmlns="http://www.w3.org/2000/svg" xmlns:xlink="http://www.w3.org/1999/xlink">
    <!-- Generator: Sketch 48.2 (47327) - http://www.bohemiancoding.com/sketch -->
    <title>010-link</title>
    <desc>Created with Sketch.</desc>
    <defs></defs>
    <g id="Page-1" stroke="none" stroke-width="1" fill="none" fill-rule="evenodd">
        <g id="010-link" fill="#95A5A6" fill-rule="nonzero">
            <path d="M455.5,168 C442.981,168 432.72,177.84 432.038,190.192 L258.878,237.96 C252.406,224.959 238.983,216 223.5,216 C222.894,216 222.292,216.019 221.692,216.046 L180.013,43.377 C186.608,39.21 191,31.861 191,23.5 C191,10.542 180.458,0 167.5,0 C154.542,0 144,10.542 144,23.5 C144,35.761 153.441,45.854 165.434,46.904 L207.113,219.574 C197.553,223.952 190.026,232.027 186.389,241.967 L46.673,219.612 C44.814,208.499 35.133,200 23.5,200 C10.542,200 0,210.542 0,223.5 C0,236.458 10.542,247 23.5,247 C32.516,247 40.358,241.893 44.298,234.423 L184.033,256.78 C184.332,266.089 187.863,274.59 193.543,281.201 L47.462,465.391 C44.974,464.492 42.294,464 39.5,464 C26.542,464 16,474.542 16,487.5 C16,500.458 26.542,511 39.5,511 C52.458,511 63,500.458 63,487.5 C63,482.79 61.602,478.403 59.207,474.722 L205.288,290.533 C210.742,293.38 216.934,295 223.5,295 C229.617,295 235.413,293.602 240.586,291.109 C240.746,291.399 240.919,291.684 241.121,291.958 L340.24,426.06 C337.572,429.872 336,434.505 336,439.5 C336,452.458 346.542,463 359.5,463 C372.458,463 383,452.458 383,439.5 C383,426.542 372.458,416 359.5,416 C356.987,416 354.567,416.401 352.295,417.134 L253.183,283.042 C252.977,282.763 252.75,282.509 252.514,282.267 C259.018,275.224 263,265.82 263,255.5 C263,254.462 262.947,253.438 262.868,252.42 L436.033,204.65 C440.262,210.891 447.41,215 455.5,215 C468.458,215 479,204.458 479,191.5 C479,178.542 468.458,168 455.5,168 Z M159,21.5 C159,16.813 162.813,13 167.5,13 C172.187,13 176,16.813 176,21.5 C176,26.187 172.187,30 167.5,30 C162.813,30 159,26.187 159,21.5 Z M368,439.5 C368,444.187 364.187,448 359.5,448 C354.813,448 351,444.187 351,439.5 C351,434.813 354.813,431 359.5,431 C364.187,431 368,434.813 368,439.5 Z M23.5,232 C18.813,232 15,228.187 15,223.5 C15,218.813 18.813,215 23.5,215 C28.187,215 32,218.813 32,223.5 C32,228.187 28.187,232 23.5,232 Z M39.5,496 C34.813,496 31,492.187 31,487.5 C31,482.813 34.813,479 39.5,479 C44.187,479 48,482.813 48,487.5 C48,492.187 44.187,496 39.5,496 Z M199,255.5 C199,241.991 209.991,231 223.5,231 C237.009,231 248,241.991 248,255.5 C248,269.009 237.009,280 223.5,280 C209.991,280 199,269.009 199,255.5 Z M455.5,200 C450.813,200 447,196.187 447,191.5 C447,186.813 450.813,183 455.5,183 C460.187,183 464,186.813 464,191.5 C464,196.187 460.187,200 455.5,200 Z" id="Shape"></path>
        </g>
    </g>
</svg>