<?xml version="1.0" encoding="UTF-8"?>
<svg width="537px" height="492px" viewBox="0 0 537 492" version="1.1" xmlns="http://www.w3.org/2000/svg" xmlns:xlink="http://www.w3.org/1999/xlink">
    <!-- Generator: Sketch 48.2 (47327) - http://www.bohemiancoding.com/sketch -->
    <title>008-users-group-1</title>
    <desc>Created with Sketch.</desc>
    <defs></defs>
    <g id="Page-1" stroke="none" stroke-width="1" fill="none" fill-rule="evenodd">
        <g id="008-users-group-1">
            <path d="M147.128,69.076 C147.128,31.126 177.894,0.36 215.849,0.36 C253.799,0.36 284.568,31.126 284.568,69.076 C284.568,107.026 253.799,137.791 215.849,137.791 C177.894,137.792 147.128,107.026 147.128,69.076 Z M248.873,184.607 C249.562,169.644 254.713,155.795 263,144.346 C257.184,143.128 251.173,142.481 245.005,142.481 L186.701,142.481 C180.551,142.481 174.548,143.123 168.762,144.326 C177.581,156.558 182.856,171.497 182.942,187.669 C193.662,181.773 205.962,178.416 219.027,178.416 C229.625,178.416 239.714,180.624 248.873,184.607 Z M260.505,190.775 C280.465,203.292 294.462,224.463 297.022,249.049 C305.155,252.85 314.193,255.043 323.768,255.043 C358.736,255.043 387.079,226.697 387.079,191.73 C387.079,156.759 358.736,128.419 323.768,128.419 C289.12,128.42 261.031,156.257 260.505,190.775 Z M350.638,259.364 L297.324,259.364 C296.745,280.696 287.641,299.906 273.243,313.714 C312.975,325.529 342.045,362.371 342.045,405.892 L342.045,426.137 C394.674,424.199 425.008,409.291 427.006,408.286 L431.238,406.134 L431.687,406.134 L431.687,340.419 C431.693,295.728 395.324,259.364 350.638,259.364 Z M364.889,127.069 C384.85,139.588 398.846,160.76 401.4,185.346 C409.534,189.147 418.571,191.336 428.146,191.336 C463.121,191.336 491.462,162.994 491.462,128.032 C491.462,93.06 463.12,64.721 428.146,64.721 C393.503,64.717 365.416,92.56 364.889,127.069 Z M455.01,195.658 L401.707,195.658 C401.128,216.99 392.025,236.2 377.627,250.007 C417.358,261.818 446.428,298.665 446.428,342.186 L446.428,362.431 C499.052,360.497 529.392,345.591 531.39,344.579 L535.616,342.434 L536.071,342.434 L536.071,276.711 C536.077,232.024 499.708,195.658 455.01,195.658 Z M107.937,255.044 C120.323,255.044 131.84,251.426 141.607,245.267 C144.713,225.026 155.565,207.335 171.061,195.292 C171.126,194.104 171.235,192.931 171.235,191.731 C171.235,156.76 142.884,128.42 107.937,128.42 C72.96,128.42 44.621,156.759 44.621,191.731 C44.621,226.704 72.959,255.044 107.937,255.044 Z M164.795,313.714 C150.464,299.972 141.391,280.867 140.723,259.659 C138.752,259.512 136.795,259.364 134.78,259.364 L81.069,259.364 C36.366,259.364 0,295.728 0,340.425 L0,406.134 L0.166,407.157 L4.694,408.569 C38.908,419.268 69.455,424.185 95.986,425.722 L95.986,405.885 C95.991,362.371 125.054,325.523 164.795,313.714 Z" id="Shape" fill="#95A5A6" fill-rule="nonzero"></path>
            <g id="Group" transform="translate(111.000000, 193.000000)" fill="#4B0472">
                <path d="M108.026,127.411 C142.988,127.411 171.333,99.057 171.333,64.1 C171.333,29.138 142.988,0.789 108.026,0.789 C73.061,0.789 44.704,29.137 44.704,64.1 C44.705,99.057 73.061,127.411 108.026,127.411 Z" id="Path"></path>
                <path d="M134.882,131.72 L81.165,131.72 C36.468,131.72 0.096,168.089 0.096,212.792 L0.096,278.495 L0.267,279.524 L4.789,280.93 C47.447,294.253 84.507,298.709 115.013,298.709 C174.584,298.709 209.127,281.722 211.255,280.635 L215.486,278.494 L215.935,278.494 L215.935,212.791 C215.936,168.089 179.585,131.72 134.882,131.72 Z" id="Path"></path>
            </g>
        </g>
    </g>
</svg>