<?xml version="1.0" encoding="UTF-8"?>
<svg width="512px" height="496px" viewBox="0 0 512 496" version="1.1" xmlns="http://www.w3.org/2000/svg" xmlns:xlink="http://www.w3.org/1999/xlink">
    <!-- Generator: Sketch 48.2 (47327) - http://www.bohemiancoding.com/sketch -->
    <title>Shape</title>
    <desc>Created with Sketch.</desc>
    <defs></defs>
    <g id="Page-1" stroke="none" stroke-width="1" fill="none" fill-rule="evenodd">
        <g id="001-open-source" fill="#95A5A6" fill-rule="nonzero">
            <path d="M256,0.14 C114.848,0.14 0,114.988 0,256.14 C0,361.452 65.984,457.356 164.224,494.796 C168.352,496.396 172.928,496.172 176.896,494.252 C180.864,492.3 183.872,488.844 185.184,484.62 L233.184,331.34 C235.488,324.076 232.32,316.204 225.664,312.556 C204.896,301.068 192,279.468 192,256.14 C192,220.844 220.704,192.14 256,192.14 C291.296,192.14 320,220.844 320,256.14 C320,279.468 307.104,301.068 286.304,312.524 C279.648,316.204 276.544,324.044 278.784,331.308 L326.784,484.588 C328.128,488.812 331.136,492.268 335.104,494.22 C337.312,495.276 339.68,495.82 342.08,495.82 C344.032,495.82 345.952,495.468 347.776,494.764 C446.016,457.356 512,361.452 512,256.14 C512,114.988 397.152,0.14 256,0.14 Z M352.096,458.188 L312.992,333.356 C337.344,315.244 352,286.668 352,256.14 C352,203.212 308.928,160.14 256,160.14 C203.072,160.14 160,203.212 160,256.14 C160,286.7 174.656,315.244 199.008,333.356 L159.936,458.188 C82.752,421.708 32,342.54 32,256.14 C32,132.62 132.48,32.14 256,32.14 C379.488,32.14 480,132.62 480,256.14 C480,342.54 429.248,421.708 352.096,458.188 Z" id="Shape"></path>
        </g>
    </g>
</svg>