<?xml version="1.0" encoding="UTF-8"?>
<svg width="512px" height="468px" viewBox="0 0 512 468" version="1.1" xmlns="http://www.w3.org/2000/svg" xmlns:xlink="http://www.w3.org/1999/xlink">
    <!-- Generator: Sketch 48.2 (47327) - http://www.bohemiancoding.com/sketch -->
    <title>006-arrows</title>
    <desc>Created with Sketch.</desc>
    <defs></defs>
    <g id="Page-1" stroke="none" stroke-width="1" fill="none" fill-rule="evenodd">
        <g id="006-arrows" fill-rule="nonzero">
            <path d="M505.651,221.741 L450.869,183.119 C440.953,176.129 427.225,183.235 427.225,195.379 L427.225,272.621 C427.225,284.815 440.982,291.848 450.868,284.881 L505.65,246.26 C514.129,240.282 514.106,227.704 505.651,221.741 Z" id="Shape" fill="#4B0472"></path>
            <path d="M430.46,330.315 C423.291,326.169 414.114,328.617 409.965,335.789 C374.729,396.704 308.865,437.596 233.598,437.596 C121.334,437.597 30,346.263 30,234.001 C30,121.739 121.334,30.404 233.597,30.404 C308.914,30.404 374.75,71.336 409.963,132.21 C414.111,139.382 423.29,141.829 430.458,137.684 C437.629,133.536 440.079,124.36 435.932,117.189 C395.408,47.133 319.721,0.404 233.597,0.404 C104.487,0.404 0,104.88 0,234.001 C0,363.111 104.476,467.597 233.597,467.597 C319.758,467.597 395.426,420.835 435.934,350.81 C440.081,343.639 437.631,334.464 430.46,330.315 Z" id="Shape" fill="#95A5A6"></path>
            <path d="M164.192,219.001 C155.908,219.001 149.192,225.716 149.192,234.001 C149.192,242.285 155.908,249.001 164.192,249.001 L397.223,249.001 L397.223,219.001 L164.192,219.001 Z" id="Shape" fill="#4B0472"></path>
        </g>
    </g>
</svg>