<?xml version="1.0" standalone="no"?>
<!DOCTYPE svg PUBLIC "-//W3C//DTD SVG 20010904//EN"
 "http://www.w3.org/TR/2001/REC-SVG-20010904/DTD/svg10.dtd">
<svg version="1.0" xmlns="http://www.w3.org/2000/svg"
 width="512.000000pt" height="512.000000pt" viewBox="0 0 512.000000 512.000000"
 preserveAspectRatio="xMidYMid meet">
<metadata>
Created by potrace 1.11, written by Peter Selinger 2001-2013
</metadata>
<g transform="translate(0.000000,512.000000) scale(0.100000,-0.100000)"
fill="#000000" stroke="none">
<path d="M2543 4448 c-6 -13 -234 -391 -507 -842 -273 -450 -496 -820 -496
-822 0 -2 142 -4 315 -4 l315 0 2 167 3 167 330 -297 c182 -164 329 -301 327
-305 -2 -4 -150 -139 -330 -301 l-327 -295 -3 167 -2 167 -296 0 -296 0 24
-33 c28 -36 901 -1265 933 -1313 l21 -31 573 809 c315 445 581 814 590 820 15
9 -53 128 -571 986 -324 537 -590 978 -592 979 -1 2 -7 -7 -13 -19z"/>
</g>
</svg>
